<?xml version="1.0" encoding="UTF-8" standalone="no"?>
<!DOCTYPE svg PUBLIC "-//W3C//DTD SVG 20010904//EN" "http://www.w3.org/TR/2001/REC-SVG-20010904/DTD/svg10.dtd">
<svg version="1.0" xmlns="http://www.w3.org/2000/svg" width="600.000000pt" height="600.000000pt" viewBox="0 0 600.000000 600.000000" preserveAspectRatio="xMidYMid meet">
    <g transform="translate(0.000000,600.000000) scale(0.100000,-0.100000)" fill="#0070c0" stroke="none">
        <path d="M0 3000 l0 -3000 3000 0 3000 0 0 3000 0 3000 -3000 0 -3000 0 0 -3000z m3405 2255 c326 -33 594 -89 910 -192 270 -88 341 -123 372 -187 13 -29 13 -62 -2 -332 -21 -388 -44 -763 -65 -1054 -18 -255 -31 -461 -40 -635 -17 -341 -59 -538 -172 -825 -102 -256 -300 -554 -501 -752 -207 -204 -534 -413 -785 -502 -126 -45 -183 -34 -420 80 -221 105 -395 229 -581 409 -271 263 -461 562 -575 905 -78 234 -110 444 -136 910 -6 102 -15 255 -20 340 -5 85 -14 229 -19 320 -6 91 -15 230 -21 310 -5 80 -15 219 -20 310 -6 91 -15 233 -20 315 -11 175 -6 200 50 248 66 56 300 142 596 217 212 54 429 93 634 114 189 19 628 20 815 1z"/>
        <path d="M2720 4443 c-60 -10 -149 -46 -192 -78 -65 -48 -99 -97 -197 -290 l-85 -164 1 -78 c0 -87 12 -121 82 -248 55 -97 65 -165 33 -217 -11 -18 -60 -70 -109 -114 -164 -150 -249 -278 -289 -434 -59 -226 49 -514 248 -665 114 -87 289 -153 467 -176 167 -23 407 28 616 131 254 124 449 283 645 526 112 140 220 355 241 481 19 116 -18 250 -100 361 -70 95 -129 103 -270 37 -160 -74 -375 -125 -527 -125 -63 0 -76 3 -103 26 -17 14 -31 34 -31 43 0 10 19 47 42 82 48 75 78 161 78 227 0 175 -107 479 -201 573 -82 82 -223 123 -349 102z"/>
    </g>
</svg>